HIERARCHY
ROOT Hips
{
 OFFSET 0.000000 0.000000 0.000000
 CHANNELS 6 Xposition Yposition Zposition Yrotation Xrotation Zrotation
 JOINT Chest
 {
  OFFSET 0.000000 9.585900 0.002600
  CHANNELS 3 Yrotation Xrotation Zrotation
  JOINT Chest2
  {
   OFFSET 0.000000 9.601200 -0.005300
   CHANNELS 3 Yrotation Xrotation Zrotation
   JOINT Chest3
   {
    OFFSET 0.000000 9.561800 0.000000
    CHANNELS 3 Yrotation Xrotation Zrotation
    JOINT Chest4
    {
     OFFSET 0.000000 9.552100 0.000000
     CHANNELS 3 Yrotation Xrotation Zrotation
     JOINT Neck
     {
      OFFSET 0.000000 14.453000 0.000000
      CHANNELS 3 Yrotation Xrotation Zrotation
      JOINT Head
      {
       OFFSET 0.000000 8.936500 -0.011300
       CHANNELS 3 Yrotation Xrotation Zrotation
       End Site
       {
        OFFSET 0.000000 17.073600 -0.006000
       }
      }
     }
     JOINT RightCollar
     {
      OFFSET -2.921100 9.558500 0.000000
      CHANNELS 3 Yrotation Xrotation Zrotation
      JOINT RightShoulder
      {
       OFFSET -13.519700 0.000000 0.000000
       CHANNELS 3 Yrotation Xrotation Zrotation
       JOINT RightElbow
       {
        OFFSET 0.000000 -29.696600 0.000000
        CHANNELS 3 Yrotation Xrotation Zrotation
        JOINT RightWrist
        {
         OFFSET 0.000000 -24.004700 0.000000
         CHANNELS 3 Yrotation Xrotation Zrotation
         End Site
         {
          OFFSET 0.000000 -17.728500 0.000000
         }
        }
       }
      }
     }
     JOINT LeftCollar
     {
      OFFSET 2.921100 9.558500 0.000000
      CHANNELS 3 Yrotation Xrotation Zrotation
      JOINT LeftShoulder
      {
       OFFSET 13.519700 0.000000 0.000000
       CHANNELS 3 Yrotation Xrotation Zrotation
       JOINT LeftElbow
       {
        OFFSET 0.000000 -29.696600 0.000000
        CHANNELS 3 Yrotation Xrotation Zrotation
        JOINT LeftWrist
        {
         OFFSET 0.000000 -24.004700 0.000000
         CHANNELS 3 Yrotation Xrotation Zrotation
         End Site
         {
          OFFSET 0.000000 -17.728500 0.000000
         }
        }
       }
      }
     }
    }
   }
  }
 }
 JOINT RightHip
 {
  OFFSET -7.771700 -0.012900 -0.001300
  CHANNELS 3 Yrotation Xrotation Zrotation
  JOINT RightKnee
  {
   OFFSET 0.000000 -40.869800 0.001200
   CHANNELS 3 Yrotation Xrotation Zrotation
   JOINT RightAnkle
   {
    OFFSET 0.000000 -39.717900 0.002100
    CHANNELS 3 Yrotation Xrotation Zrotation
    JOINT RightToe
    {
     OFFSET 0.000000 -4.965400 11.033500
     CHANNELS 3 Yrotation Xrotation Zrotation
     End Site
     {
      OFFSET 0.000000 -1.423100 5.872300
     }
    }
   }
  }
 }
 JOINT LeftHip
 {
  OFFSET 7.771700 -0.012900 -0.001300
  CHANNELS 3 Yrotation Xrotation Zrotation
  JOINT LeftKnee
  {
   OFFSET 0.000000 -40.869800 0.001200
   CHANNELS 3 Yrotation Xrotation Zrotation
   JOINT LeftAnkle
   {
    OFFSET 0.000000 -39.717900 0.002100
    CHANNELS 3 Yrotation Xrotation Zrotation
    JOINT LeftToe
    {
     OFFSET 0.000000 -4.965400 11.033500
     CHANNELS 3 Yrotation Xrotation Zrotation
     End Site
     {
      OFFSET 0.000000 -1.423100 5.872300
     }
    }
   }
  }
 }
}
MOTION
Frames: 12
Frame Time: 0.008333
0.000000 85.388000 0.000000 0.000000 -5.767877 0.000000 0.000000 11.653817 0.000000 0.000000 -5.885947 0.000000 0.000000 -0.000000 0.000000 0.000000 -0.000000 0.000000 0.000000 12.528835 0.000000 0.000000 0.711642 0.000000 0.000000 -0.000000 0.000000 0.000000 0.000000 -90.000000 0.000000 -2.309062 0.000000 0.000000 2.309062 0.000000 0.000000 -0.000000 0.000000 0.000000 -0.000000 90.000000 0.000000 -2.309062 0.000000 0.000000 2.309062 0.000000 0.000000 8.520406 0.000000 0.000000 1.905762 0.000000 -0.000000 -4.658285 0.000000 0.000000 -0.000000 0.000000 0.000000 8.520406 0.000000 0.000000 1.905762 0.000000 -0.000000 -4.658285 0.000000 0.000000 -0.000000 0.000000
21.761078 49.946962 58.200019 172.643033 -30.399492 -6.377640 7.137599 20.052428 6.936213 0.816359 2.765028 0.641529 1.380218 4.528302 1.099936 5.874412 17.170185 4.900740 -3.055696 16.637623 2.073894 -6.300362 -4.422052 4.946903 -0.639058 -3.313016 -5.044890 4.012563 -10.777928 -5.149447 -178.679986 -79.065758 163.624055 -9.177844 -15.471485 17.551596 -10.307262 -2.195175 -0.414117 9.024718 -9.642992 3.400575 120.570307 -58.794163 -125.941739 32.717992 4.015006 -7.014241 -1.618736 -49.466325 11.231800 -136.062979 83.615364 -123.893398 -1.949897 -15.395526 -4.846801 -0.156233 0.930564 -0.045658 -9.184794 -53.971725 16.189095 -157.367963 80.740539 -164.606422 0.880437 -17.232959 7.492668 -0.265582 -0.489687 -0.136518
21.760253 49.948944 58.199877 172.654689 -30.412263 -6.393450 7.148946 20.069873 6.965330 0.815966 2.774896 0.645187 1.369606 4.518781 1.090360 5.902479 17.196036 4.940962 -3.064341 16.706919 2.067853 -6.312121 -4.339846 4.932557 -0.578718 -3.282373 -5.011313 4.089107 -11.007263 -5.203632 -178.529897 -79.303404 163.376591 -9.006411 -14.994908 16.461787 -10.344619 -2.196569 -0.405153 8.715109 -9.838926 3.322113 121.836827 -60.360990 -126.024581 31.886669 3.389424 -4.693199 -1.625510 -49.449928 11.232877 -136.037707 83.620173 -123.852835 -1.964326 -15.384672 -4.849062 -0.156187 0.924056 -0.049350 -9.198102 -53.961227 16.200804 -157.170713 80.728772 -164.417899 0.918054 -17.211905 7.511808 -0.269825 -0.508357 -0.141930
21.758764 49.949941 58.201239 172.667362 -30.416946 -6.410130 7.158072 20.073898 6.993677 0.817263 2.787449 0.650379 1.372469 4.528490 1.097604 5.908242 17.196916 4.960665 -3.073441 16.771142 2.061481 -6.330200 -4.272345 4.915680 -0.573082 -3.282572 -5.017020 4.212262 -11.203594 -5.211690 -178.526596 -79.571994 163.278145 -8.787982 -14.408721 15.294415 -10.374308 -2.187195 -0.395630 8.371288 -10.025561 3.231248 123.143187 -61.937143 -126.120654 30.997409 2.919553 -2.484479 -1.634437 -49.441585 11.233787 -136.003341 83.622590 -123.808386 -1.955129 -15.375985 -4.851406 -0.194010 0.922396 -0.053977 -9.256380 -53.956838 16.249755 -156.914056 80.712642 -164.195206 0.958700 -17.176810 7.529601 -0.269379 -0.529487 -0.137604
21.755903 49.950735 58.202095 172.679126 -30.426697 -6.420561 7.163180 20.081712 7.015922 0.824142 2.795574 0.653163 1.375320 4.535854 1.104246 5.905893 17.207017 4.984567 -3.077488 16.815936 2.047908 -6.355295 -4.212065 4.899535 -0.561480 -3.284006 -5.024230 4.344435 -11.395048 -5.220075 -178.522861 -79.858208 163.181225 -8.520068 -13.700171 14.066244 -10.394141 -2.170466 -0.390503 8.019535 -10.210721 3.132793 124.300218 -63.427510 -126.115377 30.124717 2.562332 -0.410329 -1.638856 -49.430100 11.226874 -136.011048 83.628183 -123.808814 -1.942189 -15.365744 -4.855647 -0.181764 0.924341 -0.059421 -9.285259 -53.951977 16.265902 -156.659094 80.696949 -163.962337 1.012601 -17.137757 7.557454 -0.274159 -0.558096 -0.150699
21.753986 49.952009 58.201820 172.694743 -30.448507 -6.440013 7.167522 20.108860 7.047068 0.827089 2.786499 0.657142 1.376844 4.543238 1.110747 5.902523 17.245958 5.008875 -3.082424 16.827649 2.033436 -6.378512 -4.163515 4.867802 -0.471518 -3.253756 -4.950583 4.438687 -11.618794 -5.323474 -178.420771 -80.152276 162.985030 -8.202765 -12.863709 12.798965 -10.406416 -2.157175 -0.387472 7.686638 -10.404835 3.028932 125.069236 -64.731196 -125.837360 29.324625 2.241482 1.530243 -1.640184 -49.404669 11.219254 -136.035290 83.638430 -123.814865 -1.930311 -15.354175 -4.863997 -0.199765 0.924529 -0.063879 -9.322410 -53.931576 16.290634 -156.383304 80.678696 -163.706293 1.062924 -17.110674 7.577981 -0.280989 -0.576164 -0.156691
21.751872 49.952231 58.202578 172.703559 -30.467484 -6.457359 7.175490 20.136874 7.075319 0.837093 2.819081 0.681314 1.370203 4.529024 1.100846 5.891796 17.279565 5.028509 -3.085332 16.886262 2.028272 -6.402915 -4.204890 4.819345 -0.408221 -3.259682 -4.910836 4.571767 -11.826160 -5.392978 -178.165421 -80.452362 162.637882 -7.847525 -11.906347 11.525583 -10.417829 -2.142816 -0.383378 7.397876 -10.609686 2.918325 125.251422 -65.746415 -125.138119 28.646223 1.908723 3.324948 -1.648684 -49.390349 11.224011 -136.090600 83.646951 -123.859264 -1.924923 -15.320332 -4.874699 -0.188279 0.919949 -0.067548 -9.370302 -53.913661 16.327128 -156.129924 80.659441 -163.478386 1.112531 -17.086945 7.594779 -0.288706 -0.591528 -0.161271
21.749151 49.952035 58.203224 172.728417 -30.489335 -6.480257 7.167421 20.176565 7.103663 0.835863 2.815361 0.677147 1.377390 4.599803 1.139601 5.864278 17.267859 5.016143 -3.100469 16.902369 2.006148 -6.402357 -4.256537 4.788359 -0.374907 -3.303224 -4.923563 4.733153 -12.005929 -5.407401 -177.705588 -80.757887 162.092444 -7.466809 -10.841052 10.277135 -10.431235 -2.117914 -0.382218 7.169774 -10.817634 2.803102 124.711515 -66.385945 -123.921779 28.134089 1.546001 4.940339 -1.662430 -49.375696 11.222934 -136.182309 83.656384 -123.938512 -1.930314 -15.271875 -4.881600 -0.190228 0.893924 -0.067379 -9.420743 -53.891916 16.343963 -156.068323 80.652624 -163.430067 1.144277 -17.073174 7.600991 -0.296434 -0.596006 -0.164103
21.746034 49.951524 58.203874 172.749326 -30.516206 -6.499288 7.160719 20.223917 7.132465 0.835365 2.809360 0.670247 1.375204 4.618727 1.148595 5.850351 17.306941 5.035832 -3.118237 16.898016 1.980834 -6.435933 -4.249926 4.739640 -0.307068 -3.309954 -4.884997 4.872004 -12.210085 -5.480624 -176.990889 -81.068536 161.293244 -7.065986 -9.678533 9.076828 -10.448948 -2.080696 -0.384721 7.001958 -11.020015 2.684430 123.454292 -66.607333 -122.187716 27.801814 1.153401 6.339872 -1.670148 -49.356801 11.220868 -136.280322 83.667686 -124.023448 -1.949203 -15.227088 -4.886319 -0.191495 0.874907 -0.067633 -9.436052 -53.867992 16.336673 -156.005465 80.646676 -163.365784 1.171806 -17.068301 7.604515 -0.301598 -0.594711 -0.163612
21.742257 49.950613 58.204939 172.762155 -30.546110 -6.510461 7.156881 20.263953 7.149980 0.834925 2.827022 0.678338 1.374360 4.602685 1.137152 5.837551 17.365489 5.062472 -3.137502 16.895831 1.961050 -6.476676 -4.239945 4.703061 -0.240105 -3.314096 -4.839291 5.008838 -12.406376 -5.557479 -175.996194 -81.382886 160.214551 -6.650089 -8.431295 7.940590 -10.471462 -2.031769 -0.385075 6.877541 -11.211548 2.559537 121.702330 -66.447054 -120.093067 27.618414 0.755120 7.503457 -1.653246 -49.341504 11.203809 -136.400124 83.675920 -124.121656 -1.972281 -15.177450 -4.888098 -0.194479 0.848561 -0.067827 -9.426731 -53.844779 16.312252 -155.885971 80.636463 -163.238213 1.210429 -17.063873 7.606898 -0.305693 -0.597904 -0.165763
21.738405 49.948945 58.207636 172.766045 -30.572208 -6.517055 7.159454 20.292362 7.160946 0.833328 2.846554 0.689332 1.372708 4.619649 1.142274 5.818631 17.396431 5.061523 -3.158578 16.896597 1.946827 -6.510781 -4.238139 4.683870 -0.191560 -3.327815 -4.802446 5.153601 -12.587572 -5.615155 -174.687624 -81.700244 158.831479 -6.217118 -7.111629 6.878305 -10.492796 -1.975139 -0.380490 6.776042 -11.386115 2.429187 119.789126 -66.022715 -117.894231 27.533504 0.379311 8.466710 -1.627164 -49.332886 11.186490 -136.492466 83.682984 -124.195380 -1.986462 -15.126849 -4.883067 -0.202289 0.814831 -0.070179 -9.402302 -53.826222 16.283360 -155.853724 80.632088 -163.190951 1.226468 -17.064622 7.610455 -0.308284 -0.589964 -0.163342
21.735176 49.946489 58.212616 172.762402 -30.591278 -6.523666 7.164851 20.323493 7.173017 0.823560 2.878287 0.692230 1.381342 4.615244 1.145449 5.806987 17.407868 5.058719 -3.189408 16.913439 1.938949 -6.550225 -4.234493 4.670448 -0.159974 -3.323999 -4.757728 5.302767 -12.768599 -5.670050 -173.075713 -82.023514 157.154175 -5.761416 -5.736294 5.897970 -10.517136 -1.898876 -0.374047 6.687405 -11.536073 2.300974 117.976550 -65.480673 -115.807854 27.507696 0.053254 9.293613 -1.599784 -49.332611 11.177597 -136.532354 83.688406 -124.220129 -1.992952 -15.077566 -4.875428 -0.195957 0.808095 -0.075553 -9.390812 -53.811899 16.274174 -155.868728 80.632642 -163.201679 1.245057 -17.072635 7.610979 -0.302424 -0.574078 -0.153502
